<svg width="165" height="51" viewBox="0 0 165 51" fill="none" xmlns="http://www.w3.org/2000/svg">
<path d="M29.232 23.78C29.112 23.78 29.004 23.72 28.908 23.6C28.836 23.48 28.848 23.348 28.944 23.204C29.16 22.916 29.472 22.508 29.88 21.98C30.312 21.428 30.768 20.828 31.248 20.18C31.752 19.532 32.232 18.92 32.688 18.344C33.144 17.744 33.516 17.264 33.804 16.904C34.116 16.52 34.272 16.328 34.272 16.328C34.392 16.16 34.548 16.136 34.74 16.256C34.956 16.352 35.196 16.496 35.46 16.688C35.748 16.856 36.036 16.964 36.324 17.012C36.372 17.012 36.408 17.024 36.432 17.048C36.48 17.048 36.516 17.048 36.54 17.048C36.972 17.048 37.248 16.808 37.368 16.328C37.488 15.92 37.356 15.536 36.972 15.176C36.588 14.792 36.096 14.456 35.496 14.168C34.92 13.88 34.356 13.64 33.804 13.448C33.252 13.256 32.856 13.124 32.616 13.052C31.08 12.572 29.364 12.2 27.468 11.936C25.572 11.672 23.796 11.54 22.14 11.54C21.372 11.54 20.436 11.564 19.332 11.612C18.252 11.66 17.1 11.768 15.876 11.936C14.676 12.08 13.488 12.32 12.312 12.656C11.136 12.968 10.092 13.388 9.18 13.916C8.268 14.444 7.464 15.116 6.768 15.932C6.072 16.724 5.724 17.6 5.724 18.56C5.724 19.064 5.784 19.436 5.904 19.676C6.024 19.892 6.144 20 6.264 20C6.528 20 6.66 19.76 6.66 19.28C6.66 18.368 6.96 17.528 7.56 16.76C8.184 15.992 8.808 15.404 9.432 14.996C10.656 14.18 12.276 13.58 14.292 13.196C16.332 12.812 18.444 12.62 20.628 12.62C22.164 12.62 23.676 12.716 25.164 12.908C26.652 13.076 28.02 13.34 29.268 13.7C30.54 14.06 31.584 14.516 32.4 15.068C32.52 15.116 32.58 15.212 32.58 15.356C32.58 15.476 32.52 15.584 32.4 15.68C32.304 15.752 32.184 15.74 32.04 15.644C31.248 15.14 30.24 14.72 29.016 14.384C27.816 14.024 26.496 13.76 25.056 13.592C23.616 13.4 22.152 13.304 20.664 13.304C18.528 13.304 16.476 13.496 14.508 13.88C12.564 14.24 11.016 14.804 9.864 15.572C9.264 15.98 8.7 16.532 8.172 17.228C7.644 17.9 7.38 18.584 7.38 19.28C7.38 19.736 7.26 20.096 7.02 20.36C6.804 20.6 6.552 20.72 6.264 20.72C5.952 20.72 5.664 20.552 5.4 20.216C5.136 19.856 5.004 19.304 5.004 18.56C5.004 17.792 5.184 17.072 5.544 16.4C5.928 15.728 6.408 15.128 6.984 14.6C7.584 14.072 8.196 13.628 8.82 13.268C9.78 12.716 10.86 12.284 12.06 11.972C13.284 11.636 14.52 11.384 15.768 11.216C17.04 11.048 18.228 10.94 19.332 10.892C20.46 10.844 21.396 10.82 22.14 10.82C23.076 10.82 24.204 10.88 25.524 11C26.844 11.12 28.2 11.312 29.592 11.576C31.008 11.84 32.352 12.176 33.624 12.584C34.896 12.992 35.94 13.484 36.756 14.06C37.14 14.324 37.464 14.624 37.728 14.96C37.992 15.296 38.124 15.668 38.124 16.076C38.124 16.148 38.112 16.22 38.088 16.292C38.088 16.364 38.076 16.436 38.052 16.508C37.932 16.964 37.74 17.288 37.476 17.48C37.212 17.672 36.912 17.768 36.576 17.768C36.264 17.768 35.928 17.696 35.568 17.552C35.208 17.384 34.884 17.216 34.596 17.048C34.38 17.336 34.032 17.78 33.552 18.38C33.096 18.956 32.592 19.592 32.04 20.288C31.512 20.984 31.008 21.644 30.528 22.268C30.072 22.868 29.736 23.324 29.52 23.636C29.448 23.732 29.352 23.78 29.232 23.78ZM23.292 27.416C22.932 27.392 22.464 27.368 21.888 27.344C21.312 27.296 20.7 27.248 20.052 27.2C19.428 27.128 18.84 27.032 18.288 26.912C17.76 26.792 17.352 26.624 17.064 26.408C16.68 26.12 16.488 25.628 16.488 24.932C16.488 24.572 16.572 24.248 16.74 23.96C16.932 23.648 17.244 23.48 17.676 23.456C17.82 23.432 17.964 23.42 18.108 23.42C18.252 23.42 18.384 23.42 18.504 23.42C19.608 23.42 20.688 23.564 21.744 23.852C22.8 24.14 23.868 24.344 24.948 24.464C25.716 23.504 26.508 22.508 27.324 21.476C28.164 20.42 28.932 19.46 29.628 18.596C30.324 17.708 30.84 17.048 31.176 16.616C31.248 16.52 31.344 16.472 31.464 16.472C31.584 16.472 31.692 16.544 31.788 16.688C31.884 16.808 31.872 16.928 31.752 17.048C31.392 17.504 30.852 18.188 30.132 19.1C29.412 19.988 28.632 20.96 27.792 22.016C26.952 23.072 26.16 24.08 25.416 25.04C25.344 25.112 25.188 25.148 24.948 25.148C24.636 25.148 24.24 25.1 23.76 25.004C23.28 24.908 22.836 24.812 22.428 24.716C22.02 24.62 21.78 24.56 21.708 24.536C21.036 24.416 20.364 24.32 19.692 24.248C19.02 24.152 18.372 24.128 17.748 24.176C17.58 24.2 17.448 24.308 17.352 24.5C17.256 24.692 17.208 24.896 17.208 25.112C17.208 25.472 17.304 25.712 17.496 25.832C17.712 26 18.084 26.132 18.612 26.228C19.14 26.324 19.704 26.408 20.304 26.48C20.928 26.528 21.516 26.576 22.068 26.624C22.644 26.648 23.076 26.672 23.364 26.696C23.58 26.696 23.688 26.816 23.688 27.056C23.688 27.152 23.652 27.248 23.58 27.344C23.508 27.416 23.412 27.44 23.292 27.416ZM7.38 38.792C6.756 38.792 6.084 38.72 5.364 38.576C4.668 38.432 3.996 38.204 3.348 37.892C2.724 37.58 2.208 37.16 1.8 36.632C1.416 36.104 1.224 35.456 1.224 34.688C1.224 33.56 1.548 32.528 2.196 31.592C2.868 30.656 3.732 29.852 4.788 29.18C5.868 28.508 7.044 27.992 8.316 27.632C9.612 27.272 10.884 27.092 12.132 27.092C12.54 27.092 13.128 27.14 13.896 27.236C14.664 27.332 15.432 27.5 16.2 27.74C16.992 27.98 17.628 28.328 18.108 28.784C18.372 29.024 18.552 29.264 18.648 29.504C18.744 29.744 18.792 29.984 18.792 30.224C18.792 30.632 18.648 30.992 18.36 31.304C18.096 31.592 17.76 31.736 17.352 31.736C16.896 31.736 16.452 31.532 16.02 31.124C15.708 30.836 15.216 30.512 14.544 30.152C13.896 29.792 13.056 29.612 12.024 29.612C10.584 29.612 9.312 29.852 8.208 30.332C7.104 30.788 6.24 31.364 5.616 32.06C4.992 32.732 4.68 33.38 4.68 34.004C4.68 34.556 4.968 35.036 5.544 35.444C6.12 35.828 7.044 36.02 8.316 36.02C9.444 36.02 10.8 35.708 12.384 35.084C13.968 34.46 15.588 33.548 17.244 32.348C18.924 31.148 20.472 29.696 21.888 27.992C21.96 27.896 22.056 27.848 22.176 27.848C22.296 27.848 22.404 27.92 22.5 28.064C22.596 28.184 22.584 28.304 22.464 28.424C21.024 30.176 19.44 31.676 17.712 32.924C15.984 34.148 14.292 35.096 12.636 35.768C10.98 36.416 9.54 36.74 8.316 36.74C6.804 36.74 5.7 36.476 5.004 35.948C4.308 35.42 3.96 34.784 3.96 34.04C3.96 33.272 4.284 32.492 4.932 31.7C5.604 30.908 6.54 30.248 7.74 29.72C8.964 29.168 10.392 28.892 12.024 28.892C13.176 28.892 14.124 29.096 14.868 29.504C15.612 29.912 16.164 30.284 16.524 30.62C16.86 30.908 17.148 31.052 17.388 31.052C17.58 31.052 17.736 30.98 17.856 30.836C17.976 30.668 18.036 30.488 18.036 30.296C18.036 29.816 17.808 29.42 17.352 29.108C16.896 28.796 16.332 28.544 15.66 28.352C14.988 28.16 14.328 28.028 13.68 27.956C13.032 27.86 12.516 27.812 12.132 27.812C10.956 27.812 9.768 27.98 8.568 28.316C7.392 28.652 6.3 29.132 5.292 29.756C4.308 30.356 3.504 31.076 2.88 31.916C2.28 32.732 1.98 33.632 1.98 34.616C1.98 35.432 2.244 36.092 2.772 36.596C3.324 37.1 4.008 37.472 4.824 37.712C5.664 37.952 6.516 38.072 7.38 38.072C9.252 38.072 11.016 37.796 12.672 37.244C14.328 36.692 15.852 35.984 17.244 35.12C18.66 34.232 19.92 33.308 21.024 32.348C22.152 31.364 23.112 30.464 23.904 29.648C24.672 28.808 25.236 28.124 25.596 27.596C25.956 27.068 26.22 26.804 26.388 26.804C26.748 26.804 27.336 26.804 28.152 26.804C28.992 26.804 29.916 26.78 30.924 26.732C31.932 26.66 32.916 26.552 33.876 26.408C34.836 26.24 35.616 26.024 36.216 25.76C36.36 25.688 36.552 25.568 36.792 25.4C37.032 25.208 37.236 24.992 37.404 24.752C37.596 24.512 37.656 24.284 37.584 24.068H37.512C37.488 24.068 37.44 24.08 37.368 24.104C37.296 24.104 37.2 24.128 37.08 24.176C36.144 24.632 35.16 24.932 34.128 25.076C33.12 25.196 32.1 25.256 31.068 25.256C30.612 25.256 30.156 25.256 29.7 25.256C29.268 25.232 28.836 25.22 28.404 25.22C28.164 25.22 28.044 25.1 28.044 24.86C28.044 24.62 28.164 24.5 28.404 24.5C28.836 24.5 29.268 24.512 29.7 24.536C30.156 24.536 30.612 24.536 31.068 24.536C32.052 24.536 33.024 24.476 33.984 24.356C34.944 24.236 35.868 23.96 36.756 23.528C37.044 23.384 37.296 23.312 37.512 23.312C38.04 23.312 38.304 23.6 38.304 24.176C38.304 24.512 38.16 24.908 37.872 25.364C37.584 25.796 37.128 26.144 36.504 26.408C35.88 26.696 35.088 26.924 34.128 27.092C33.192 27.236 32.22 27.344 31.212 27.416C30.204 27.464 29.28 27.5 28.44 27.524C27.6 27.524 26.976 27.524 26.568 27.524C24.768 29.828 22.968 31.712 21.168 33.176C19.368 34.64 17.628 35.78 15.948 36.596C14.268 37.412 12.696 37.976 11.232 38.288C9.792 38.624 8.508 38.792 7.38 38.792ZM44.9724 31.628C44.8284 31.628 44.7084 31.568 44.6124 31.448C44.5404 31.328 44.5524 31.196 44.6484 31.052C45.3684 29.996 45.7284 28.976 45.7284 27.992C45.7284 27.296 45.5124 26.732 45.0804 26.3C44.6724 25.844 44.0484 25.616 43.2084 25.616C41.9604 25.616 40.7364 26.168 39.5364 27.272C38.3604 28.352 37.1484 29.708 35.9004 31.34C35.8284 31.412 35.7564 31.448 35.6844 31.448C35.5644 31.448 35.4684 31.376 35.3964 31.232C35.3004 31.088 35.3004 30.944 35.3964 30.8C36.2124 29.72 37.0284 28.736 37.8444 27.848C38.6604 26.96 39.5004 26.252 40.3644 25.724C41.2524 25.196 42.1764 24.932 43.1364 24.932C44.3364 24.932 45.1884 25.22 45.6924 25.796C46.1964 26.372 46.4484 27.068 46.4484 27.884C46.4484 28.484 46.3404 29.096 46.1244 29.72C45.9084 30.344 45.6084 30.932 45.2244 31.484C45.1524 31.58 45.0684 31.628 44.9724 31.628ZM38.4924 36.092C37.9884 36.092 37.5924 35.924 37.3044 35.588C37.0404 35.228 36.9084 34.772 36.9084 34.22C36.9084 33.5 37.1244 32.708 37.5564 31.844C37.9884 30.98 38.5404 30.164 39.2124 29.396C39.9084 28.604 40.6284 27.956 41.3724 27.452C42.1164 26.948 42.7884 26.696 43.3884 26.696C43.7244 26.696 43.8924 26.816 43.8924 27.056C43.8924 27.152 43.8564 27.248 43.7844 27.344C43.7124 27.416 43.6164 27.44 43.4964 27.416C42.9924 27.368 42.4044 27.572 41.7324 28.028C41.0844 28.484 40.4484 29.072 39.8244 29.792C39.2004 30.512 38.6724 31.28 38.2404 32.096C37.8324 32.888 37.6284 33.608 37.6284 34.256C37.6284 34.568 37.6884 34.832 37.8084 35.048C37.9284 35.264 38.1564 35.372 38.4924 35.372C38.8764 35.372 39.2844 35.252 39.7164 35.012C40.1484 34.748 40.5444 34.436 40.9044 34.076C41.2644 33.716 41.5284 33.38 41.6964 33.068C41.7684 32.948 41.8644 32.888 41.9844 32.888C42.1044 32.888 42.2124 32.948 42.3084 33.068C42.4044 33.164 42.4044 33.284 42.3084 33.428C42.0924 33.788 41.7804 34.184 41.3724 34.616C40.9644 35.024 40.5084 35.372 40.0044 35.66C39.5004 35.948 38.9964 36.092 38.4924 36.092ZM44.5404 33.212C43.7484 33.212 43.0644 32.972 42.4884 32.492C41.9124 32.012 41.6244 31.364 41.6244 30.548C41.6244 30.26 41.6604 29.96 41.7324 29.648C41.8284 29.312 41.9604 28.964 42.1284 28.604C42.2004 28.46 42.3084 28.388 42.4524 28.388C42.5724 28.388 42.6684 28.436 42.7404 28.532C42.8364 28.628 42.8484 28.748 42.7764 28.892C42.6324 29.18 42.5244 29.456 42.4524 29.72C42.4044 29.984 42.3804 30.236 42.3804 30.476C42.3804 31.124 42.5964 31.628 43.0284 31.988C43.4604 32.324 43.9764 32.492 44.5764 32.492C45.1044 32.492 45.6444 32.36 46.1964 32.096C46.7484 31.832 47.2524 31.412 47.7084 30.836C47.7804 30.74 47.8644 30.692 47.9604 30.692C48.0804 30.692 48.1884 30.764 48.2844 30.908C48.3804 31.028 48.3804 31.148 48.2844 31.268C47.7324 31.94 47.1204 32.432 46.4484 32.744C45.8004 33.056 45.1644 33.212 44.5404 33.212ZM38.4204 38.36C37.3884 38.36 36.5244 38.024 35.8284 37.352C35.1324 36.656 34.8324 35.84 34.9284 34.904C34.9284 34.664 35.0484 34.544 35.2884 34.544C35.3844 34.544 35.4804 34.592 35.5764 34.688C35.6484 34.76 35.6724 34.856 35.6484 34.976C35.6004 35.6 35.8404 36.212 36.3684 36.812C36.9204 37.388 37.6164 37.676 38.4564 37.676C39.0084 37.676 39.5964 37.508 40.2204 37.172C40.8444 36.836 41.4684 36.272 42.0924 35.48C42.0924 35.48 42.1644 35.384 42.3084 35.192C42.4764 35 42.6564 34.796 42.8484 34.58C43.0404 34.34 43.1724 34.148 43.2444 34.004C43.3164 33.86 43.4124 33.788 43.5324 33.788C43.6524 33.788 43.7484 33.848 43.8204 33.968C43.9164 34.064 43.9284 34.184 43.8564 34.328C43.7124 34.616 43.5204 34.892 43.2804 35.156C43.0404 35.42 42.8244 35.684 42.6324 35.948C41.9604 36.812 41.2524 37.436 40.5084 37.82C39.7884 38.18 39.0924 38.36 38.4204 38.36ZM57.3123 31.628C57.1683 31.628 57.0483 31.568 56.9523 31.448C56.8803 31.328 56.8923 31.196 56.9883 31.052C57.7083 29.996 58.0683 28.976 58.0683 27.992C58.0683 27.296 57.8523 26.732 57.4203 26.3C57.0123 25.844 56.3883 25.616 55.5483 25.616C54.3003 25.616 53.0763 26.168 51.8763 27.272C50.7003 28.352 49.4883 29.708 48.2403 31.34C48.1683 31.412 48.0963 31.448 48.0243 31.448C47.9043 31.448 47.8083 31.376 47.7363 31.232C47.6403 31.088 47.6403 30.944 47.7363 30.8C48.5523 29.72 49.3683 28.736 50.1843 27.848C51.0003 26.96 51.8403 26.252 52.7043 25.724C53.5923 25.196 54.5163 24.932 55.4763 24.932C56.6763 24.932 57.5283 25.22 58.0323 25.796C58.5363 26.372 58.7883 27.068 58.7883 27.884C58.7883 28.484 58.6803 29.096 58.4643 29.72C58.2483 30.344 57.9483 30.932 57.5643 31.484C57.4923 31.58 57.4083 31.628 57.3123 31.628ZM50.8323 36.092C50.3283 36.092 49.9323 35.924 49.6443 35.588C49.3803 35.228 49.2483 34.772 49.2483 34.22C49.2483 33.5 49.4643 32.708 49.8963 31.844C50.3283 30.98 50.8803 30.164 51.5523 29.396C52.2483 28.604 52.9683 27.956 53.7123 27.452C54.4563 26.948 55.1283 26.696 55.7283 26.696C56.0643 26.696 56.2323 26.816 56.2323 27.056C56.2323 27.152 56.1963 27.248 56.1243 27.344C56.0523 27.416 55.9563 27.44 55.8363 27.416C55.3323 27.368 54.7443 27.572 54.0723 28.028C53.4243 28.484 52.7883 29.072 52.1643 29.792C51.5403 30.512 51.0123 31.28 50.5803 32.096C50.1723 32.888 49.9683 33.608 49.9683 34.256C49.9683 34.568 50.0283 34.832 50.1483 35.048C50.2683 35.264 50.4963 35.372 50.8323 35.372C51.2163 35.372 51.6243 35.252 52.0563 35.012C52.4883 34.748 52.8843 34.436 53.2443 34.076C53.6043 33.716 53.8683 33.38 54.0363 33.068C54.1083 32.948 54.2043 32.888 54.3243 32.888C54.4443 32.888 54.5523 32.948 54.6483 33.068C54.7443 33.164 54.7443 33.284 54.6483 33.428C54.4323 33.788 54.1203 34.184 53.7123 34.616C53.3043 35.024 52.8483 35.372 52.3443 35.66C51.8403 35.948 51.3363 36.092 50.8323 36.092ZM56.8803 33.212C56.0883 33.212 55.4043 32.972 54.8283 32.492C54.2523 32.012 53.9643 31.364 53.9643 30.548C53.9643 30.26 54.0003 29.96 54.0723 29.648C54.1683 29.312 54.3003 28.964 54.4683 28.604C54.5403 28.46 54.6483 28.388 54.7923 28.388C54.9123 28.388 55.0083 28.436 55.0803 28.532C55.1763 28.628 55.1883 28.748 55.1163 28.892C54.9723 29.18 54.8643 29.456 54.7923 29.72C54.7443 29.984 54.7203 30.236 54.7203 30.476C54.7203 31.124 54.9363 31.628 55.3683 31.988C55.8003 32.324 56.3163 32.492 56.9163 32.492C57.4443 32.492 57.9843 32.36 58.5363 32.096C59.0883 31.832 59.5923 31.412 60.0483 30.836C60.1203 30.74 60.2043 30.692 60.3003 30.692C60.4203 30.692 60.5283 30.764 60.6243 30.908C60.7203 31.028 60.7203 31.148 60.6243 31.268C60.0723 31.94 59.4603 32.432 58.7883 32.744C58.1403 33.056 57.5043 33.212 56.8803 33.212ZM50.7603 38.36C49.7283 38.36 48.8643 38.024 48.1683 37.352C47.4723 36.656 47.1723 35.84 47.2683 34.904C47.2683 34.664 47.3883 34.544 47.6283 34.544C47.7243 34.544 47.8203 34.592 47.9163 34.688C47.9883 34.76 48.0123 34.856 47.9883 34.976C47.9403 35.6 48.1803 36.212 48.7083 36.812C49.2603 37.388 49.9563 37.676 50.7963 37.676C51.3483 37.676 51.9363 37.508 52.5603 37.172C53.1843 36.836 53.8083 36.272 54.4323 35.48C54.4323 35.48 54.5043 35.384 54.6483 35.192C54.8163 35 54.9963 34.796 55.1883 34.58C55.3803 34.34 55.5123 34.148 55.5843 34.004C55.6563 33.86 55.7523 33.788 55.8723 33.788C55.9923 33.788 56.0883 33.848 56.1603 33.968C56.2563 34.064 56.2683 34.184 56.1963 34.328C56.0523 34.616 55.8603 34.892 55.6203 35.156C55.3803 35.42 55.1643 35.684 54.9723 35.948C54.3003 36.812 53.5923 37.436 52.8483 37.82C52.1283 38.18 51.4323 38.36 50.7603 38.36ZM63.0641 35.876C62.4881 35.876 62.1041 35.648 61.9121 35.192C61.7441 34.712 61.6601 34.316 61.6601 34.004C61.6601 33.404 61.8641 32.684 62.2721 31.844C62.6801 31.004 63.2081 30.188 63.8561 29.396C64.5281 28.58 65.2361 27.908 65.9801 27.38C66.7241 26.828 67.4321 26.552 68.1041 26.552C68.3921 26.552 68.5361 26.672 68.5361 26.912C68.5361 27.008 68.5001 27.104 68.4281 27.2C68.3801 27.272 68.2961 27.296 68.1761 27.272C67.6481 27.248 67.0481 27.476 66.3761 27.956C65.7281 28.436 65.0921 29.048 64.4681 29.792C63.8681 30.536 63.3641 31.292 62.9561 32.06C62.5721 32.804 62.3801 33.452 62.3801 34.004C62.3801 34.34 62.4401 34.616 62.5601 34.832C62.6801 35.048 62.8481 35.156 63.0641 35.156C63.3521 35.156 63.7121 34.952 64.1441 34.544C64.6001 34.136 65.0681 33.644 65.5481 33.068C66.0521 32.492 66.4961 31.952 66.8801 31.448C67.2641 30.92 67.5281 30.56 67.6721 30.368C68.2481 29.6 68.8121 28.832 69.3641 28.064C69.9161 27.296 70.4921 26.576 71.0921 25.904C71.4521 25.472 71.9201 24.884 72.4961 24.14C73.0961 23.396 73.7201 22.604 74.3681 21.764C75.0401 20.9 75.6761 20.084 76.2761 19.316C76.9001 18.524 77.4041 17.9 77.7881 17.444C78.0521 17.132 78.3641 16.904 78.7241 16.76C79.0841 16.616 79.4321 16.544 79.7681 16.544C80.1761 16.544 80.5241 16.64 80.8121 16.832C81.1001 17 81.2441 17.252 81.2441 17.588C81.2441 17.924 81.0761 18.296 80.7401 18.704C80.4281 19.064 79.9361 19.64 79.2641 20.432C78.6161 21.2 77.8721 22.1 77.0321 23.132C76.2161 24.164 75.3761 25.244 74.5121 26.372C73.6721 27.476 72.8801 28.556 72.1361 29.612C71.4161 30.644 70.8281 31.58 70.3721 32.42C69.9401 33.236 69.7241 33.848 69.7241 34.256C69.7241 34.832 69.9521 35.12 70.4081 35.12C70.9841 35.12 71.6441 34.916 72.3881 34.508C73.1321 34.1 73.8761 33.572 74.6201 32.924C75.3881 32.252 76.0361 31.556 76.5641 30.836C76.6361 30.74 76.7321 30.692 76.8521 30.692C76.9721 30.692 77.0801 30.752 77.1761 30.872C77.2721 30.992 77.2601 31.124 77.1401 31.268C76.6121 31.988 75.9521 32.696 75.1601 33.392C74.3681 34.088 73.5521 34.676 72.7121 35.156C71.8721 35.612 71.1041 35.84 70.4081 35.84C69.9041 35.84 69.5441 35.684 69.3281 35.372C69.1121 35.036 69.0041 34.664 69.0041 34.256C69.0041 33.776 69.2321 33.104 69.6881 32.24C70.1441 31.352 70.7441 30.368 71.4881 29.288C72.2561 28.184 73.0721 27.056 73.9361 25.904C74.8001 24.752 75.6521 23.648 76.4921 22.592C77.3561 21.536 78.1121 20.624 78.7601 19.856C79.4081 19.064 79.8761 18.512 80.1641 18.2C80.3801 17.936 80.4881 17.732 80.4881 17.588C80.4881 17.348 80.2961 17.228 79.9121 17.228C79.6721 17.228 79.3961 17.288 79.0841 17.408C78.7721 17.528 78.5321 17.684 78.3641 17.876C77.9801 18.332 77.4761 18.956 76.8521 19.748C76.2521 20.516 75.6161 21.332 74.9441 22.196C74.2721 23.06 73.6481 23.864 73.0721 24.608C72.4961 25.352 72.0281 25.928 71.6681 26.336C70.4441 27.776 69.2921 29.276 68.2121 30.836C67.1561 32.372 65.9561 33.788 64.6121 35.084C64.4441 35.252 64.2281 35.432 63.9641 35.624C63.7001 35.792 63.4001 35.876 63.0641 35.876ZM60.2561 31.484C60.1361 31.484 60.0401 31.436 59.9681 31.34C59.8721 31.22 59.8721 31.088 59.9681 30.944C60.4481 30.368 60.9641 29.732 61.5161 29.036C62.0681 28.316 62.6681 27.632 63.3161 26.984C63.9881 26.336 64.6961 25.808 65.4401 25.4C66.2081 24.992 67.0121 24.788 67.8521 24.788C68.2121 24.788 68.5841 24.836 68.9681 24.932C69.3761 25.004 69.7361 25.172 70.0481 25.436C70.1441 25.508 70.1921 25.604 70.1921 25.724C70.1921 25.844 70.1201 25.952 69.9761 26.048C69.8561 26.12 69.7361 26.108 69.6161 26.012C69.3761 25.82 69.1001 25.688 68.7881 25.616C68.5001 25.544 68.1881 25.508 67.8521 25.508C66.8681 25.508 65.9441 25.832 65.0801 26.48C64.2401 27.104 63.4481 27.86 62.7041 28.748C61.9841 29.636 61.2881 30.488 60.6161 31.304C60.4961 31.424 60.3761 31.484 60.2561 31.484ZM69.1481 38.396C68.2841 38.396 67.6001 38.18 67.0961 37.748C66.5921 37.316 66.3401 36.632 66.3401 35.696C66.3401 35.336 66.3761 34.988 66.4481 34.652C66.5441 34.292 66.6761 33.956 66.8441 33.644C66.9161 33.524 67.0121 33.464 67.1321 33.464C67.2521 33.464 67.3601 33.524 67.4561 33.644C67.5521 33.74 67.5641 33.86 67.4921 34.004C67.2041 34.508 67.0601 35.072 67.0601 35.696C67.0601 36.392 67.2281 36.896 67.5641 37.208C67.9241 37.52 68.4521 37.676 69.1481 37.676C70.0601 37.676 70.9721 37.448 71.8841 36.992C72.8201 36.512 73.6601 35.996 74.4041 35.444C74.4521 35.396 74.5241 35.372 74.6201 35.372C74.8601 35.372 74.9801 35.504 74.9801 35.768C74.9801 35.864 74.9321 35.948 74.8361 36.02C74.0921 36.62 73.2161 37.172 72.2081 37.676C71.2241 38.156 70.2041 38.396 69.1481 38.396ZM63.0641 38.396C62.1041 38.396 61.2761 38.06 60.5801 37.388C59.9081 36.692 59.5841 35.864 59.6081 34.904C59.6081 34.688 59.7281 34.58 59.9681 34.58C60.0641 34.58 60.1601 34.616 60.2561 34.688C60.3281 34.736 60.3521 34.82 60.3281 34.94C60.3041 35.708 60.5681 36.356 61.1201 36.884C61.6721 37.412 62.3201 37.676 63.0641 37.676C63.6881 37.676 64.2881 37.52 64.8641 37.208C64.9601 37.16 65.0201 37.136 65.0441 37.136C65.2841 37.136 65.4041 37.268 65.4041 37.532C65.4041 37.676 65.3441 37.784 65.2241 37.856C64.5521 38.216 63.8321 38.396 63.0641 38.396Z" fill="#F15152"/>
<path d="M91.712 39.044C90.056 39.044 88.592 38.708 87.32 38.036C86.048 37.364 85.052 36.416 84.332 35.192C83.636 33.944 83.288 32.468 83.288 30.764C83.288 28.724 83.72 26.756 84.584 24.86C85.448 22.94 86.624 21.176 88.112 19.568C89.6 17.96 91.268 16.556 93.116 15.356C94.988 14.132 96.92 13.184 98.912 12.512C100.928 11.84 102.884 11.504 104.78 11.504C106.628 11.504 108.14 11.756 109.316 12.26C110.492 12.74 111.356 13.376 111.908 14.168C112.46 14.96 112.736 15.824 112.736 16.76C112.736 17.648 112.508 18.536 112.052 19.424C111.596 20.312 110.924 21.128 110.036 21.872C109.172 22.592 108.128 23.18 106.904 23.636C105.68 24.068 104.312 24.284 102.8 24.284C102.224 24.284 101.552 24.224 100.784 24.104C100.016 23.984 99.26 23.78 98.516 23.492C97.772 23.18 97.148 22.772 96.644 22.268C96.164 21.764 95.924 21.116 95.924 20.324V20.288C95.924 20.048 96.044 19.928 96.284 19.928C96.524 19.928 96.644 20.036 96.644 20.252C96.74 21.068 97.124 21.716 97.796 22.196C98.492 22.676 99.296 23.024 100.208 23.24C101.144 23.456 102.008 23.564 102.8 23.564C104.648 23.564 106.256 23.216 107.624 22.52C109.016 21.824 110.084 20.96 110.828 19.928C111.596 18.872 111.98 17.816 111.98 16.76C111.98 15.944 111.728 15.2 111.224 14.528C110.744 13.832 109.976 13.28 108.92 12.872C107.864 12.44 106.484 12.224 104.78 12.224C102.956 12.224 101.072 12.56 99.128 13.232C97.184 13.88 95.312 14.792 93.512 15.968C91.712 17.144 90.092 18.512 88.652 20.072C87.236 21.632 86.108 23.324 85.268 25.148C84.428 26.948 84.008 28.82 84.008 30.764C84.008 33.092 84.704 34.94 86.096 36.308C87.512 37.652 89.384 38.324 91.712 38.324C93.2 38.324 94.664 38.096 96.104 37.64C97.568 37.16 98.888 36.464 100.064 35.552C101.24 34.616 102.164 33.464 102.836 32.096C102.908 31.952 102.992 31.736 103.088 31.448C103.208 31.16 103.316 30.872 103.412 30.584C103.508 30.296 103.556 30.104 103.556 30.008C103.556 29.888 103.544 29.816 103.52 29.792C103.52 29.744 103.52 29.72 103.52 29.72C103.472 29.672 103.376 29.648 103.232 29.648C102.872 29.648 102.596 29.792 102.404 30.08C102.212 30.344 102.056 30.668 101.936 31.052C101.816 31.412 101.648 31.736 101.432 32.024C100.832 32.84 100.004 33.632 98.948 34.4C97.916 35.144 96.812 35.756 95.636 36.236C94.46 36.716 93.344 36.956 92.288 36.956C90.368 36.956 88.856 36.392 87.752 35.264C86.672 34.112 86.132 32.588 86.132 30.692C86.132 29.06 86.516 27.416 87.284 25.76C88.052 24.104 89.072 22.532 90.344 21.044C91.64 19.556 93.092 18.236 94.7 17.084C96.308 15.908 97.952 14.984 99.632 14.312C101.336 13.64 102.968 13.304 104.528 13.304C106.856 13.304 108.512 13.664 109.496 14.384C110.504 15.08 111.008 15.908 111.008 16.868C111.008 17.54 110.804 18.224 110.396 18.92C109.988 19.592 109.412 20.216 108.668 20.792C107.948 21.368 107.108 21.836 106.148 22.196C105.188 22.556 104.168 22.736 103.088 22.736C102.704 22.736 102.188 22.664 101.54 22.52C100.892 22.376 100.232 22.172 99.56 21.908C98.912 21.644 98.36 21.308 97.904 20.9C97.448 20.492 97.22 20.024 97.22 19.496V19.424C97.22 19.208 97.34 19.1 97.58 19.1C97.796 19.1 97.916 19.196 97.94 19.388C98.012 19.748 98.24 20.084 98.624 20.396C99.008 20.708 99.476 20.996 100.028 21.26C100.58 21.5 101.132 21.692 101.684 21.836C102.236 21.956 102.704 22.016 103.088 22.016C104.36 22.016 105.536 21.752 106.616 21.224C107.72 20.696 108.608 20.036 109.28 19.244C109.952 18.452 110.288 17.672 110.288 16.904C110.288 16.136 109.844 15.464 108.956 14.888C108.092 14.312 106.616 14.024 104.528 14.024C103.04 14.024 101.48 14.348 99.848 14.996C98.216 15.644 96.632 16.532 95.096 17.66C93.56 18.788 92.168 20.072 90.92 21.512C89.672 22.928 88.676 24.428 87.932 26.012C87.212 27.596 86.852 29.156 86.852 30.692C86.852 32.372 87.332 33.716 88.292 34.724C89.252 35.732 90.584 36.236 92.288 36.236C93.008 36.236 93.812 36.092 94.7 35.804C95.612 35.492 96.512 35.084 97.4 34.58C98.288 34.052 99.08 33.464 99.776 32.816C100.472 32.168 100.964 31.508 101.252 30.836C101.468 30.356 101.684 29.924 101.9 29.54C102.116 29.132 102.56 28.928 103.232 28.928C103.928 28.928 104.276 29.288 104.276 30.008C104.276 30.176 104.216 30.428 104.096 30.764C104 31.1 103.892 31.424 103.772 31.736C103.652 32.048 103.556 32.276 103.484 32.42C102.788 33.884 101.804 35.108 100.532 36.092C99.284 37.076 97.892 37.808 96.356 38.288C94.82 38.792 93.272 39.044 91.712 39.044ZM118.234 31.628C118.09 31.628 117.97 31.568 117.874 31.448C117.802 31.328 117.814 31.196 117.91 31.052C118.63 29.996 118.99 28.976 118.99 27.992C118.99 27.296 118.774 26.732 118.342 26.3C117.934 25.844 117.31 25.616 116.47 25.616C115.222 25.616 113.998 26.168 112.798 27.272C111.622 28.352 110.41 29.708 109.162 31.34C109.09 31.412 109.018 31.448 108.946 31.448C108.826 31.448 108.73 31.376 108.658 31.232C108.562 31.088 108.562 30.944 108.658 30.8C109.474 29.72 110.29 28.736 111.106 27.848C111.922 26.96 112.762 26.252 113.626 25.724C114.514 25.196 115.438 24.932 116.398 24.932C117.598 24.932 118.45 25.22 118.954 25.796C119.458 26.372 119.71 27.068 119.71 27.884C119.71 28.484 119.602 29.096 119.386 29.72C119.17 30.344 118.87 30.932 118.486 31.484C118.414 31.58 118.33 31.628 118.234 31.628ZM111.754 36.092C111.25 36.092 110.854 35.924 110.566 35.588C110.302 35.228 110.17 34.772 110.17 34.22C110.17 33.5 110.386 32.708 110.818 31.844C111.25 30.98 111.802 30.164 112.474 29.396C113.17 28.604 113.89 27.956 114.634 27.452C115.378 26.948 116.05 26.696 116.65 26.696C116.986 26.696 117.154 26.816 117.154 27.056C117.154 27.152 117.118 27.248 117.046 27.344C116.974 27.416 116.878 27.44 116.758 27.416C116.254 27.368 115.666 27.572 114.994 28.028C114.346 28.484 113.71 29.072 113.086 29.792C112.462 30.512 111.934 31.28 111.502 32.096C111.094 32.888 110.89 33.608 110.89 34.256C110.89 34.568 110.95 34.832 111.07 35.048C111.19 35.264 111.418 35.372 111.754 35.372C112.138 35.372 112.546 35.252 112.978 35.012C113.41 34.748 113.806 34.436 114.166 34.076C114.526 33.716 114.79 33.38 114.958 33.068C115.03 32.948 115.126 32.888 115.246 32.888C115.366 32.888 115.474 32.948 115.57 33.068C115.666 33.164 115.666 33.284 115.57 33.428C115.354 33.788 115.042 34.184 114.634 34.616C114.226 35.024 113.77 35.372 113.266 35.66C112.762 35.948 112.258 36.092 111.754 36.092ZM117.802 33.212C117.01 33.212 116.326 32.972 115.75 32.492C115.174 32.012 114.886 31.364 114.886 30.548C114.886 30.26 114.922 29.96 114.994 29.648C115.09 29.312 115.222 28.964 115.39 28.604C115.462 28.46 115.57 28.388 115.714 28.388C115.834 28.388 115.93 28.436 116.002 28.532C116.098 28.628 116.11 28.748 116.038 28.892C115.894 29.18 115.786 29.456 115.714 29.72C115.666 29.984 115.642 30.236 115.642 30.476C115.642 31.124 115.858 31.628 116.29 31.988C116.722 32.324 117.238 32.492 117.838 32.492C118.366 32.492 118.906 32.36 119.458 32.096C120.01 31.832 120.514 31.412 120.97 30.836C121.042 30.74 121.126 30.692 121.222 30.692C121.342 30.692 121.45 30.764 121.546 30.908C121.642 31.028 121.642 31.148 121.546 31.268C120.994 31.94 120.382 32.432 119.71 32.744C119.062 33.056 118.426 33.212 117.802 33.212ZM111.682 38.36C110.65 38.36 109.786 38.024 109.09 37.352C108.394 36.656 108.094 35.84 108.19 34.904C108.19 34.664 108.31 34.544 108.55 34.544C108.646 34.544 108.742 34.592 108.838 34.688C108.91 34.76 108.934 34.856 108.91 34.976C108.862 35.6 109.102 36.212 109.63 36.812C110.182 37.388 110.878 37.676 111.718 37.676C112.27 37.676 112.858 37.508 113.482 37.172C114.106 36.836 114.73 36.272 115.354 35.48C115.354 35.48 115.426 35.384 115.57 35.192C115.738 35 115.918 34.796 116.11 34.58C116.302 34.34 116.434 34.148 116.506 34.004C116.578 33.86 116.674 33.788 116.794 33.788C116.914 33.788 117.01 33.848 117.082 33.968C117.178 34.064 117.19 34.184 117.118 34.328C116.974 34.616 116.782 34.892 116.542 35.156C116.302 35.42 116.086 35.684 115.894 35.948C115.222 36.812 114.514 37.436 113.77 37.82C113.05 38.18 112.354 38.36 111.682 38.36ZM125.534 36.092C125.366 36.092 125.186 35.984 124.994 35.768C124.826 35.528 124.742 35.168 124.742 34.688C124.742 34.184 124.85 33.632 125.066 33.032C125.282 32.408 125.546 31.796 125.858 31.196C126.194 30.572 126.506 30.032 126.794 29.576C127.106 29.096 127.346 28.748 127.514 28.532C127.874 28.076 128.186 27.68 128.45 27.344C128.714 27.008 128.87 26.804 128.918 26.732C129.158 26.396 129.278 26.084 129.278 25.796C129.278 25.436 129.11 25.16 128.774 24.968C128.462 24.752 128.114 24.644 127.73 24.644C127.322 24.644 127.01 24.74 126.794 24.932C126.458 25.244 126.098 25.616 125.714 26.048C125.354 26.456 124.97 26.936 124.562 27.488C124.13 28.04 123.674 28.628 123.194 29.252C122.714 29.876 122.162 30.548 121.538 31.268C121.466 31.364 121.37 31.412 121.25 31.412C121.13 31.412 121.034 31.352 120.962 31.232C120.866 31.088 120.866 30.956 120.962 30.836C121.586 30.14 122.138 29.468 122.618 28.82C123.122 28.172 123.578 27.584 123.986 27.056C124.418 26.504 124.814 26.012 125.174 25.58C125.558 25.124 125.942 24.728 126.326 24.392C126.662 24.08 127.118 23.924 127.694 23.924C128.27 23.924 128.798 24.104 129.278 24.464C129.782 24.8 130.034 25.244 130.034 25.796C130.034 26.012 129.962 26.276 129.818 26.588C129.674 26.876 129.338 27.368 128.81 28.064C127.514 29.768 126.638 31.112 126.182 32.096C125.726 33.08 125.498 33.956 125.498 34.724C125.498 35.084 125.57 35.324 125.714 35.444C125.81 35.516 125.858 35.612 125.858 35.732C125.858 35.972 125.75 36.092 125.534 36.092ZM126.974 35.3C126.734 35.3 126.614 35.18 126.614 34.94C126.614 34.796 126.686 34.688 126.83 34.616C127.982 33.992 128.966 33.14 129.782 32.06C130.598 30.98 131.318 29.816 131.942 28.568C132.566 27.32 133.166 26.156 133.742 25.076C133.886 24.788 134.09 24.584 134.354 24.464C134.642 24.32 134.942 24.248 135.254 24.248C135.806 24.248 136.322 24.428 136.802 24.788C137.306 25.148 137.558 25.604 137.558 26.156C137.558 26.564 137.402 26.972 137.09 27.38C137.018 27.476 136.922 27.524 136.802 27.524C136.682 27.524 136.574 27.464 136.478 27.344C136.406 27.224 136.418 27.092 136.514 26.948C136.73 26.66 136.838 26.384 136.838 26.12C136.838 25.76 136.67 25.484 136.334 25.292C135.998 25.1 135.662 25.004 135.326 25.004C135.134 25.004 134.942 25.04 134.75 25.112C134.582 25.184 134.462 25.292 134.39 25.436C133.79 26.564 133.166 27.776 132.518 29.072C131.87 30.344 131.114 31.532 130.25 32.636C129.41 33.74 128.378 34.616 127.154 35.264C127.106 35.288 127.046 35.3 126.974 35.3ZM124.814 38.144C123.95 38.12 123.254 37.82 122.726 37.244C122.222 36.668 121.97 35.888 121.97 34.904C121.97 34.736 121.97 34.568 121.97 34.4C121.994 34.232 122.018 34.064 122.042 33.896C122.114 33.536 122.318 32.972 122.654 32.204C122.99 31.436 123.422 30.62 123.95 29.756C124.502 28.868 125.078 28.1 125.678 27.452C125.75 27.356 125.834 27.308 125.93 27.308C126.074 27.308 126.182 27.38 126.254 27.524C126.326 27.668 126.302 27.8 126.182 27.92C125.606 28.568 125.066 29.312 124.562 30.152C124.058 30.968 123.638 31.736 123.302 32.456C122.99 33.176 122.81 33.692 122.762 34.004C122.738 34.172 122.714 34.34 122.69 34.508C122.69 34.652 122.69 34.796 122.69 34.94C122.69 35.78 122.906 36.404 123.338 36.812C123.77 37.22 124.298 37.424 124.922 37.424C125.69 37.424 126.578 37.1 127.586 36.452C128.594 35.804 129.578 34.76 130.538 33.32C130.61 33.2 130.706 33.14 130.826 33.14C130.946 33.14 131.054 33.2 131.15 33.32C131.246 33.44 131.234 33.584 131.114 33.752C130.106 35.24 129.038 36.344 127.91 37.064C126.806 37.784 125.774 38.144 124.814 38.144ZM133.49 36.092C133.346 36.092 133.238 36.08 133.166 36.056C132.83 35.936 132.59 35.756 132.446 35.516C132.326 35.276 132.266 35 132.266 34.688C132.266 34.28 132.35 33.86 132.518 33.428C132.686 32.972 132.866 32.54 133.058 32.132C133.274 31.724 133.442 31.412 133.562 31.196C133.826 30.692 134.09 30.188 134.354 29.684C134.642 29.18 134.906 28.772 135.146 28.46C135.218 28.364 135.314 28.316 135.434 28.316C135.554 28.316 135.662 28.376 135.758 28.496C135.854 28.616 135.842 28.748 135.722 28.892C135.194 29.588 134.726 30.356 134.318 31.196C133.91 32.012 133.526 32.816 133.166 33.608C133.022 33.92 132.95 34.244 132.95 34.58C132.95 35.084 133.142 35.336 133.526 35.336C133.718 35.336 133.994 35.228 134.354 35.012C135.17 34.484 135.902 33.836 136.55 33.068C137.198 32.3 137.822 31.556 138.422 30.836C138.494 30.74 138.578 30.692 138.674 30.692C138.818 30.692 138.926 30.764 138.998 30.908C139.094 31.028 139.082 31.16 138.962 31.304C138.794 31.52 138.494 31.88 138.062 32.384C137.654 32.888 137.174 33.428 136.622 34.004C136.07 34.58 135.518 35.072 134.966 35.48C134.414 35.888 133.922 36.092 133.49 36.092ZM132.41 38.18C131.954 38.18 131.462 38.108 130.934 37.964C130.406 37.796 129.986 37.484 129.674 37.028C129.626 36.932 129.602 36.86 129.602 36.812C129.602 36.572 129.722 36.452 129.962 36.452C130.082 36.452 130.178 36.5 130.25 36.596C130.466 36.908 130.778 37.136 131.186 37.28C131.594 37.4 132.002 37.46 132.41 37.46C133.034 37.46 133.73 37.328 134.498 37.064C135.29 36.8 136.082 36.368 136.874 35.768C136.922 35.72 136.994 35.696 137.09 35.696C137.33 35.696 137.45 35.816 137.45 36.056C137.45 36.176 137.402 36.272 137.306 36.344C136.466 36.992 135.614 37.46 134.75 37.748C133.91 38.036 133.13 38.18 132.41 38.18ZM138.723 31.412C138.603 31.412 138.507 31.352 138.435 31.232C138.339 31.112 138.339 30.98 138.435 30.836C138.987 30.116 139.527 29.324 140.055 28.46C140.607 27.572 141.075 26.756 141.459 26.012C141.867 25.244 142.143 24.692 142.287 24.356C142.671 23.42 143.127 22.76 143.655 22.376C144.183 21.968 144.687 21.764 145.167 21.764C145.695 21.764 146.139 21.944 146.499 22.304C146.883 22.664 147.075 23.12 147.075 23.672C147.075 23.96 146.979 24.32 146.787 24.752C146.715 24.896 146.607 24.968 146.463 24.968C146.343 24.968 146.235 24.92 146.139 24.824C146.067 24.728 146.067 24.608 146.139 24.464C146.259 24.176 146.319 23.924 146.319 23.708C146.319 23.372 146.211 23.084 145.995 22.844C145.779 22.604 145.503 22.484 145.167 22.484C144.807 22.484 144.423 22.652 144.015 22.988C143.631 23.324 143.271 23.876 142.935 24.644C142.791 25.004 142.515 25.568 142.107 26.336C141.699 27.104 141.219 27.932 140.667 28.82C140.115 29.708 139.563 30.524 139.011 31.268C138.939 31.364 138.843 31.412 138.723 31.412ZM146.967 35.696C146.655 35.696 146.391 35.624 146.175 35.48C145.767 35.216 145.563 34.832 145.563 34.328C145.563 33.8 145.731 33.236 146.067 32.636C146.427 32.012 146.811 31.436 147.219 30.908C147.651 30.356 147.951 29.924 148.119 29.612C148.311 29.3 148.503 28.988 148.695 28.676C148.887 28.364 148.983 28.028 148.983 27.668C148.983 27.476 148.923 27.284 148.803 27.092C148.683 26.876 148.431 26.696 148.047 26.552C147.663 26.384 147.051 26.3 146.211 26.3C146.043 26.3 145.851 26.312 145.635 26.336C145.419 26.36 145.179 26.372 144.915 26.372H144.879C144.639 26.372 144.519 26.252 144.519 26.012C144.519 25.772 144.627 25.652 144.843 25.652C145.035 25.628 145.239 25.616 145.455 25.616C145.671 25.592 145.875 25.58 146.067 25.58C147.003 25.58 147.843 25.724 148.587 26.012C149.355 26.276 149.739 26.792 149.739 27.56C149.739 28.04 149.571 28.58 149.235 29.18C148.803 29.996 148.299 30.764 147.723 31.484C147.171 32.18 146.715 32.948 146.355 33.788C146.331 33.86 146.307 33.932 146.283 34.004C146.283 34.076 146.283 34.148 146.283 34.22C146.283 34.532 146.379 34.748 146.571 34.868C146.691 34.94 146.823 34.976 146.967 34.976C147.327 34.976 147.759 34.808 148.263 34.472C148.791 34.112 149.319 33.692 149.847 33.212C150.399 32.708 150.891 32.24 151.323 31.808C151.755 31.352 152.055 31.016 152.223 30.8C152.295 30.704 152.379 30.656 152.475 30.656C152.595 30.656 152.703 30.728 152.799 30.872C152.895 30.992 152.883 31.124 152.763 31.268C152.499 31.604 152.007 32.132 151.287 32.852C150.567 33.548 149.823 34.196 149.055 34.796C148.287 35.396 147.591 35.696 146.967 35.696ZM138.471 34.58C138.327 34.58 138.219 34.508 138.147 34.364C138.051 34.22 138.075 34.088 138.219 33.968C139.011 33.2 139.767 32.348 140.487 31.412C141.207 30.452 141.819 29.576 142.323 28.784C142.851 27.992 143.175 27.44 143.295 27.128C143.367 26.984 143.475 26.912 143.619 26.912C143.739 26.912 143.835 26.96 143.907 27.056C143.979 27.152 143.991 27.272 143.943 27.416C143.823 27.752 143.499 28.328 142.971 29.144C142.443 29.96 141.807 30.86 141.063 31.844C140.319 32.804 139.539 33.68 138.723 34.472C138.651 34.544 138.567 34.58 138.471 34.58ZM145.203 38.36C144.387 38.36 143.667 38.156 143.043 37.748C142.443 37.34 142.143 36.656 142.143 35.696C142.143 34.928 142.359 34.088 142.791 33.176C143.223 32.24 143.727 31.34 144.303 30.476C144.879 29.588 145.395 28.832 145.851 28.208C145.923 28.112 146.019 28.064 146.139 28.064C146.259 28.064 146.367 28.124 146.463 28.244C146.559 28.364 146.547 28.496 146.427 28.64C146.019 29.216 145.527 29.924 144.951 30.764C144.399 31.604 143.907 32.468 143.475 33.356C143.067 34.22 142.863 35 142.863 35.696C142.863 36.344 143.055 36.836 143.439 37.172C143.847 37.484 144.387 37.64 145.059 37.64C145.923 37.64 146.859 37.412 147.867 36.956C148.899 36.5 149.691 35.924 150.243 35.228C150.315 35.132 150.411 35.084 150.531 35.084C150.651 35.084 150.759 35.156 150.855 35.3C150.951 35.42 150.939 35.54 150.819 35.66C150.171 36.428 149.319 37.076 148.263 37.604C147.207 38.108 146.187 38.36 145.203 38.36ZM161.109 24.176C160.965 24.176 160.845 24.116 160.749 23.996C160.677 23.852 160.701 23.708 160.821 23.564L163.377 20.792C163.497 20.672 163.557 20.516 163.557 20.324C163.557 20.108 163.449 19.916 163.233 19.748C163.041 19.58 162.813 19.496 162.549 19.496C162.309 19.496 162.057 19.604 161.793 19.82C161.505 20.06 161.061 20.516 160.461 21.188C159.861 21.86 159.177 22.664 158.409 23.6C158.409 23.624 158.373 23.66 158.301 23.708C158.229 23.732 158.181 23.744 158.157 23.744H155.313C155.073 23.744 154.953 23.624 154.953 23.384C154.953 23.144 155.073 23.024 155.313 23.024H157.977C158.697 22.112 159.357 21.332 159.957 20.684C160.557 20.012 161.001 19.544 161.289 19.28C161.649 18.944 162.069 18.776 162.549 18.776C163.029 18.776 163.437 18.932 163.773 19.244C164.109 19.532 164.277 19.88 164.277 20.288C164.277 20.648 164.157 20.96 163.917 21.224C163.869 21.296 163.701 21.488 163.413 21.8C163.149 22.112 162.825 22.472 162.441 22.88C162.057 23.288 161.697 23.684 161.361 24.068C161.289 24.14 161.205 24.176 161.109 24.176ZM152.433 31.412C152.217 31.412 152.109 31.304 152.109 31.088C152.109 31.016 152.169 30.896 152.289 30.728C152.913 29.96 153.633 29.048 154.449 27.992C155.265 26.936 156.081 25.832 156.897 24.68C156.969 24.584 157.053 24.536 157.149 24.536C157.293 24.536 157.401 24.608 157.473 24.752C157.569 24.872 157.569 24.992 157.473 25.112C156.657 26.264 155.841 27.38 155.025 28.46C154.209 29.516 153.453 30.452 152.757 31.268C152.661 31.364 152.553 31.412 152.433 31.412ZM156.465 35.876C155.577 35.876 154.917 35.528 154.485 34.832C154.389 34.64 154.305 34.448 154.233 34.256C154.161 34.04 154.125 33.812 154.125 33.572C154.125 33.164 154.221 32.696 154.413 32.168C154.629 31.616 154.965 31.028 155.421 30.404C155.685 30.02 156.069 29.528 156.573 28.928C157.077 28.304 157.605 27.656 158.157 26.984C158.733 26.288 159.225 25.652 159.633 25.076C159.633 25.052 159.669 25.028 159.741 25.004C159.837 24.956 159.897 24.932 159.921 24.932H163.017C163.257 24.932 163.377 25.052 163.377 25.292C163.377 25.532 163.257 25.652 163.017 25.652H160.101C159.693 26.228 159.213 26.852 158.661 27.524C158.133 28.172 157.617 28.796 157.113 29.396C156.633 29.996 156.261 30.476 155.997 30.836C155.589 31.436 155.301 31.964 155.133 32.42C154.965 32.852 154.881 33.236 154.881 33.572C154.881 33.932 154.953 34.22 155.097 34.436C155.385 34.916 155.841 35.156 156.465 35.156C157.089 35.156 157.725 34.952 158.373 34.544C159.045 34.112 159.705 33.572 160.353 32.924C161.001 32.252 161.589 31.556 162.117 30.836C162.189 30.74 162.285 30.692 162.405 30.692C162.525 30.692 162.633 30.752 162.729 30.872C162.825 30.992 162.813 31.124 162.693 31.268C161.805 32.516 160.797 33.596 159.669 34.508C158.541 35.42 157.473 35.876 156.465 35.876ZM155.313 38.036C154.377 38.036 153.621 37.772 153.045 37.244C152.493 36.692 152.241 35.912 152.289 34.904C152.289 34.688 152.409 34.58 152.649 34.58C152.745 34.58 152.829 34.616 152.901 34.688C152.997 34.736 153.033 34.82 153.009 34.94C152.985 35.612 153.177 36.188 153.585 36.668C154.017 37.124 154.641 37.352 155.457 37.352C156.033 37.352 156.693 37.208 157.437 36.92C158.205 36.608 159.033 36.116 159.921 35.444C159.969 35.396 160.041 35.372 160.137 35.372C160.377 35.372 160.497 35.492 160.497 35.732C160.497 35.852 160.449 35.948 160.353 36.02C159.465 36.692 158.577 37.196 157.689 37.532C156.825 37.868 156.033 38.036 155.313 38.036Z" fill="#1E555C"/>
<path d="M63.85 49V42.33H66.59C67.2433 42.33 67.7333 42.4933 68.06 42.82C68.3933 43.1467 68.56 43.63 68.56 44.27C68.56 44.6567 68.48 45 68.32 45.3C68.16 45.6 67.9367 45.8367 67.65 46.01C67.3633 46.1833 67.0267 46.27 66.64 46.27L66.94 46.07L68.86 49H68.01L66.03 45.94L66.39 46.31H64.57V49H63.85ZM64.57 45.63H66.26C66.8133 45.63 67.2133 45.52 67.46 45.3C67.7133 45.0733 67.84 44.7467 67.84 44.32C67.84 43.92 67.7467 43.6033 67.56 43.37C67.3733 43.13 67.0233 43.01 66.51 43.01H64.57V45.63ZM70.1586 49V42.33H74.3686V43.01H70.8786V45.31H73.9486V46.01H70.8786V48.32H74.3686V49H70.1586ZM78.7591 49.08C77.7325 49.08 76.9591 48.7933 76.4391 48.22C75.9258 47.6467 75.6691 46.7933 75.6691 45.66C75.6691 44.5267 75.9258 43.6733 76.4391 43.1C76.9591 42.5267 77.7325 42.24 78.7591 42.24C79.1125 42.24 79.4591 42.2833 79.7991 42.37C80.1391 42.4567 80.4691 42.5767 80.7891 42.73V43.42C80.4825 43.2533 80.1658 43.13 79.8391 43.05C79.5125 42.9633 79.1791 42.92 78.8391 42.92C78.2791 42.92 77.8191 43.0167 77.4591 43.21C77.1058 43.4033 76.8425 43.7033 76.6691 44.11C76.5025 44.51 76.4191 45.0267 76.4191 45.66C76.4191 46.2933 76.5025 46.8133 76.6691 47.22C76.8425 47.62 77.1058 47.9167 77.4591 48.11C77.8191 48.3033 78.2791 48.4 78.8391 48.4C79.1791 48.4 79.5125 48.36 79.8391 48.28C80.1658 48.2 80.4825 48.0767 80.7891 47.91V48.6C80.5758 48.7 80.3558 48.7867 80.1291 48.86C79.9091 48.9333 79.6825 48.9867 79.4491 49.02C79.2225 49.06 78.9925 49.08 78.7591 49.08ZM82.1898 49V42.33H82.9098V49H82.1898ZM85.3317 46.45V49H84.6117V42.33H86.9817C87.7284 42.33 88.2984 42.5067 88.6917 42.86C89.0917 43.2133 89.2917 43.7233 89.2917 44.39C89.2917 45.0567 89.0917 45.5667 88.6917 45.92C88.2984 46.2733 87.7284 46.45 86.9817 46.45H85.3317ZM85.3317 45.76H86.8917C87.2651 45.76 87.5617 45.72 87.7817 45.64C88.0084 45.56 88.1784 45.4533 88.2917 45.32C88.4051 45.18 88.4784 45.03 88.5117 44.87C88.5517 44.71 88.5717 44.55 88.5717 44.39C88.5717 44.23 88.5517 44.07 88.5117 43.91C88.4784 43.75 88.4051 43.6033 88.2917 43.47C88.1784 43.33 88.0084 43.22 87.7817 43.14C87.5617 43.06 87.2651 43.02 86.8917 43.02H85.3317V45.76ZM90.7445 49V42.33H94.9545V43.01H91.4645V45.31H94.5345V46.01H91.4645V48.32H94.9545V49H90.7445ZM98.4451 49.1C98.1117 49.1 97.8284 49.0767 97.5951 49.03C97.3617 48.9833 97.1517 48.9167 96.9651 48.83C96.7784 48.7433 96.5751 48.6433 96.3551 48.53V47.75C96.5684 47.93 96.8551 48.09 97.2151 48.23C97.5751 48.37 97.9951 48.44 98.4751 48.44C98.9817 48.44 99.3484 48.3333 99.5751 48.12C99.8084 47.9 99.9251 47.6233 99.9251 47.29C99.9251 47.01 99.8484 46.7867 99.6951 46.62C99.5417 46.4467 99.3451 46.3067 99.1051 46.2C98.8651 46.0867 98.6117 45.98 98.3451 45.88C98.1184 45.8 97.8917 45.7167 97.6651 45.63C97.4451 45.5367 97.2451 45.4233 97.0651 45.29C96.8851 45.15 96.7417 44.9733 96.6351 44.76C96.5284 44.54 96.4751 44.2667 96.4751 43.94C96.4751 43.76 96.5084 43.57 96.5751 43.37C96.6484 43.17 96.7617 42.9833 96.9151 42.81C97.0751 42.6367 97.2851 42.4967 97.5451 42.39C97.8117 42.2833 98.1351 42.23 98.5151 42.23C98.7751 42.23 98.9951 42.25 99.1751 42.29C99.3617 42.3233 99.5384 42.3767 99.7051 42.45C99.8717 42.5167 100.058 42.6 100.265 42.7V43.44C100.092 43.34 99.9251 43.25 99.7651 43.17C99.6117 43.0833 99.4384 43.0167 99.2451 42.97C99.0584 42.9167 98.8284 42.89 98.5551 42.89C98.2284 42.89 97.9651 42.9367 97.7651 43.03C97.5717 43.1233 97.4284 43.2467 97.3351 43.4C97.2484 43.5533 97.2051 43.7167 97.2051 43.89C97.2051 44.1633 97.2651 44.38 97.3851 44.54C97.5117 44.7 97.6851 44.8333 97.9051 44.94C98.1317 45.04 98.3917 45.14 98.6851 45.24C98.9184 45.32 99.1517 45.41 99.3851 45.51C99.6184 45.6033 99.8284 45.7233 100.015 45.87C100.208 46.01 100.362 46.19 100.475 46.41C100.595 46.6233 100.655 46.89 100.655 47.21C100.655 47.51 100.588 47.8067 100.455 48.1C100.322 48.3867 100.095 48.6267 99.7751 48.82C99.4551 49.0067 99.0117 49.1 98.4451 49.1Z" fill="#1E555C"/>
</svg>
